<svg width="24" height="24" viewBox="0 0 24 24" fill="none" xmlns="http://www.w3.org/2000/svg">
<rect x="11" y="1" width="2" height="4" fill="#0C0D45"/>
<rect width="2" height="4" transform="matrix(1 0 0 -1 11 23)" fill="#0C0D45"/>
<rect x="9" y="5" width="2" height="4" fill="#0C0D45"/>
<rect width="2" height="4" transform="matrix(1 0 0 -1 9 19)" fill="#0C0D45"/>
<rect x="13" y="5" width="2" height="4" fill="#0C0D45"/>
<rect width="2" height="4" transform="matrix(1 0 0 -1 13 19)" fill="#0C0D45"/>
<rect x="5" y="9" width="4" height="2" fill="#0C0D45"/>
<rect width="4" height="2" transform="matrix(-1 0 0 1 19 9)" fill="#0C0D45"/>
<rect x="1" y="11" width="4" height="2" fill="#0C0D45"/>
<rect width="4" height="2" transform="matrix(-1 0 0 1 23 11)" fill="#0C0D45"/>
<rect x="5" y="13" width="4" height="2" fill="#0C0D45"/>
<rect width="4" height="2" transform="matrix(-1 0 0 1 19 13)" fill="#0C0D45"/>
<rect x="19" y="1" width="2" height="6" fill="#0C0D45"/>
<rect x="17" y="3" width="6" height="2" fill="#0C0D45"/>
<rect x="3" y="17" width="2" height="2" fill="#0C0D45"/>
<rect x="1" y="19" width="2" height="2" fill="#0C0D45"/>
<rect x="3" y="21" width="2" height="2" fill="#0C0D45"/>
<rect x="5" y="19" width="2" height="2" fill="#0C0D45"/>
</svg>
